<svg width="76" height="48" viewBox="0 0 76 48" fill="none" xmlns="http://www.w3.org/2000/svg">
    <path
        d="M38 48C58.9868 48 76 37.2548 76 24C76 10.7452 58.9868 0 38 0C17.0132 0 0 10.7452 0 24C0 37.2548 17.0132 48 38 48Z"
        fill="#432A1A" />
    <path
        d="M13.6244 18.43C14.2514 18.1726 14.8316 17.8133 15.3419 17.3664C16.1836 16.6289 16.4419 15.9111 16.0709 15.4392C15.7272 15.0001 15.1131 15.0078 14.0404 15.5851C13.2742 15.9989 11.7779 16.7299 11.1025 16.0077C10.2651 15.1132 11.5031 13.3659 12.3273 12.7052C13.0936 12.0927 13.7503 11.7338 14.1882 11.5956C14.2287 11.8787 14.2505 12.0203 14.2976 12.3024C13.7153 12.506 13.1763 12.8173 12.7083 13.2199C11.7034 14.0683 11.6706 14.785 11.942 15.0857C12.3186 15.4951 12.9589 15.3053 14.0864 14.7236C14.8756 14.3175 16.3292 13.8049 16.9389 14.6994C17.6755 15.7805 16.5536 17.1502 15.7053 17.8955C15.1021 18.4245 14.3502 18.9173 13.8784 19.0885C13.7744 18.8251 13.724 18.6945 13.6244 18.43Z"
        fill="#F8B135" stroke="#F8B135" stroke-miterlimit="10" />
    <path
        d="M15.8027 10.2884C16.4096 9.78199 17.0573 9.32679 17.739 8.92743C18.7833 8.30951 19.659 8.06475 20.2894 8.09439C20.8685 8.12183 21.3282 8.38194 21.5559 8.86267C21.6655 9.08954 21.7177 9.33996 21.7079 9.59185C21.6982 9.84373 21.6268 10.0893 21.5001 10.307C21.1585 10.9535 20.4219 11.5978 19.486 12.1564C19.231 12.3159 18.9655 12.4578 18.6913 12.5811L19.9578 14.6028C19.6031 14.8223 19.4269 14.9409 19.0821 15.1768L15.8027 10.2884ZM18.3586 12.0445C18.6467 11.9183 18.9254 11.7716 19.1927 11.6054C20.3693 10.9041 20.9057 10.138 20.5303 9.41035C20.1712 8.71121 19.2167 8.7606 18.0718 9.43888C17.7396 9.62713 17.4243 9.84379 17.1293 10.0864L18.3586 12.0445Z"
        fill="#F8B135" stroke="#F8B135" stroke-miterlimit="10" />
    <path
        d="M30.4681 7.13186C30.8654 9.05256 29.264 10.6188 27.5773 11.139C26.0361 11.6142 23.7538 11.3651 23.0292 9.64962C22.17 7.61587 24.0811 5.83785 25.8193 5.24188C27.5094 4.66348 30.0401 5.0575 30.4681 7.13186ZM24.1194 9.16561C24.6317 10.4563 26.1422 10.9678 27.4393 10.5233C28.7912 10.0601 29.669 8.79573 29.333 7.42161C28.9707 5.94651 27.3485 5.47786 25.9551 5.85651C24.5222 6.24724 23.5699 7.77611 24.1216 9.16561H24.1194Z"
        fill="#F8B135" stroke="#F8B135" stroke-miterlimit="10" />
    <path
        d="M31.4105 4.0686C32.1449 3.85776 32.896 3.71088 33.6556 3.62959C34.922 3.49239 35.7561 3.60764 36.3362 3.91495C36.8025 4.1619 37.0674 4.5625 37.0784 5.02237C37.0981 5.80821 36.3953 6.33942 35.5164 6.61491V6.64125C36.1808 6.75649 36.5847 7.17136 36.8014 7.7805C37.0937 8.59927 37.294 9.17219 37.4582 9.39938C37.04 9.40596 36.831 9.41255 36.4128 9.4323C36.2771 9.26987 36.0713 8.7639 35.8021 8.04062C35.5065 7.2427 35.0358 6.94307 34.0507 7.02758C33.6424 7.07258 33.4388 7.09673 33.0316 7.1527L33.3819 9.70998C32.9802 9.76486 32.7799 9.79559 32.3804 9.86254C32.0571 7.93233 31.7338 6.00101 31.4105 4.0686ZM32.9539 6.57869C33.4027 6.51723 33.6271 6.48979 34.0781 6.44149C35.2537 6.31747 35.9794 5.83784 35.9389 5.15847C35.8973 4.39018 35.026 4.08617 33.7957 4.21348C33.4092 4.24656 33.0269 4.31713 32.654 4.42421L32.9539 6.57869Z"
        fill="#F8B135" stroke="#F8B135" stroke-miterlimit="10" />
    <path
        d="M40.5482 4.17836C39.4536 4.10702 38.8965 4.09055 37.7953 4.09604C37.7953 3.83373 37.7953 3.70312 37.7953 3.43752C40.0675 3.46128 42.3352 3.64465 44.5818 3.98629L44.4724 4.63055C43.3778 4.44835 42.8305 4.37592 41.7238 4.27165L41.2214 9.55084C40.8131 9.51133 40.6095 9.49596 40.2012 9.46852C40.3173 7.70587 40.4329 5.94248 40.5482 4.17836Z"
        fill="#F8B135" stroke="#F8B135" stroke-miterlimit="10" />
    <path
        d="M49.3904 5.78077C48.3264 5.45809 47.7901 5.31541 46.7108 5.07066C46.7688 4.81493 46.7973 4.68761 46.8553 4.43298C49.085 4.97574 51.2731 5.67739 53.4032 6.53259L53.1503 7.13624C52.1126 6.69722 51.5872 6.50185 50.5233 6.14845C49.9592 7.8233 49.3958 9.49852 48.8332 11.1741C48.4414 11.0424 48.2443 10.9798 47.8481 10.8591L49.3904 5.78077Z"
        fill="#F8B135" stroke="#F8B135" stroke-miterlimit="10" />
    <path
        d="M57.046 11.9369C56.0846 11.3443 55.0934 10.8018 54.0763 10.3114L53.1383 12.2431C54.2033 12.7864 55.218 13.3516 56.2469 13.9663L55.9076 14.515C54.6284 13.7158 53.2969 13.0041 51.9222 12.3847C52.7358 10.573 53.5487 8.7617 54.3609 6.95076C55.9076 7.68062 57.3919 8.46866 58.8641 9.34121L58.527 9.88998C57.4214 9.23145 56.3214 8.6278 55.1764 8.04391C54.848 8.72109 54.6827 9.05914 54.3544 9.73632C55.3882 10.237 56.3962 10.7897 57.3744 11.3925C57.2408 11.6098 57.1751 11.7196 57.046 11.9369Z"
        fill="#F8B135" stroke="#F8B135" stroke-miterlimit="10" />
    <path
        d="M59.2352 14.5183C58.5018 14.9079 58.1406 15.1099 57.4357 15.5292C57.0788 15.2778 56.8982 15.156 56.5348 14.9167C58.4197 13.727 60.4064 12.737 62.4391 11.8304C62.9152 12.2014 63.1505 12.3924 63.6157 12.7842C63.1723 14.9813 62.6011 17.1504 61.9049 19.2806C61.5765 18.9513 61.4069 18.7889 61.0675 18.4739C61.3138 17.6792 61.4287 17.2775 61.64 16.4654C60.8771 15.7827 60.0627 15.1264 59.2352 14.5183ZM61.8622 15.8584C62.0472 15.1099 62.1315 14.7323 62.2869 13.9706C62.3745 13.5382 62.4883 13.1749 62.5945 12.8171L62.5715 12.7996C62.2431 12.9851 61.895 13.1727 61.5316 13.3483C60.8223 13.6655 60.4721 13.8313 59.7803 14.1759C60.6286 14.8136 61.0445 15.1494 61.8622 15.8584Z"
        fill="#F8B135" stroke="#F8B135" stroke-miterlimit="10" />
    <path fill-rule="evenodd" clip-rule="evenodd"
        d="M13.0903 21.9641C16.0579 22.2508 16.2306 24.54 16.2281 25.0996C16.9282 25.3207 17.6106 25.5995 18.2683 25.9337C18.282 25.913 18.295 25.8919 18.3071 25.8702C18.3411 25.8933 18.3783 25.9174 18.4166 25.9393C18.8479 26.1918 19.2967 26.4344 19.7236 26.655C20.1504 26.8756 20.5883 27.0819 21.0261 27.2794C21.2789 27.3936 21.5449 27.4803 21.8065 27.5758C22.032 27.6581 22.2587 27.7415 22.4874 27.814C22.7961 27.9105 23.1048 28.0104 23.4178 28.0883C24.193 28.2846 24.9837 28.4132 25.7811 28.4725C26.5094 28.5334 27.2415 28.5357 27.9702 28.4791C28.2442 28.4549 28.5172 28.4258 28.7896 28.3917C28.7344 28.3786 28.6781 28.3651 28.6204 28.3518C29.0998 28.2596 29.5782 28.1564 30.0521 28.0401C30.9946 27.8074 31.9272 27.5385 32.8543 27.2586C33.7202 26.9963 34.5838 26.7263 35.4474 26.4563C35.4533 26.4633 35.459 26.4705 35.4648 26.4776C35.8719 26.319 36.2787 26.1596 36.6865 26.003C38.3097 25.6419 40.4933 24.6839 40.8021 24.5093C40.8251 24.4983 40.8471 24.4873 40.869 24.4742L41.113 24.4072C41.68 24.2557 42.2482 24.1075 42.8152 23.955C42.8207 23.9536 43.3155 23.8314 43.9207 23.7223C45.6261 23.4051 47.0764 23.5379 47.499 23.4929C47.5563 23.4956 47.6137 23.4937 47.6707 23.4874C47.6937 23.4907 47.7156 23.4973 47.7397 23.4973C47.7907 23.5011 47.842 23.5011 47.893 23.4973C48.3921 23.5522 48.8934 23.5972 49.3903 23.6718C49.7187 23.7212 50.0471 23.8101 50.3755 23.8913C50.6382 23.9561 50.8988 24.0307 51.1571 24.1108C51.3935 24.1843 51.6277 24.2645 51.8576 24.3567C52.2954 24.5356 52.7333 24.7145 53.1711 24.9055C53.3957 25.0099 53.6149 25.1257 53.8278 25.2523C54.1858 25.4564 54.5437 25.6584 54.894 25.8779C55.149 26.036 55.3931 26.2127 55.6438 26.3773C55.8573 26.5188 56.0612 26.6746 56.254 26.8434C56.4308 26.9239 56.6094 27.0007 56.7899 27.0731C57.0456 27.1755 57.3042 27.2696 57.5651 27.3558C57.5738 26.9553 57.7381 24.9581 60.1207 24C60.1207 24 60.4296 26.7419 57.6936 27.3976C58.6404 27.6998 59.6177 27.8955 60.6076 27.9812C60.5592 27.3205 60.7209 25.7352 63.1889 24.9691C63.1892 24.9719 63.2887 27.1072 61.3658 28.0251C61.4418 28.0274 61.5179 28.0292 61.594 28.0301C62.1865 28.0391 62.7773 28.004 63.3619 27.9263C63.3561 27.2348 63.5797 25.6342 65.5915 24.5433C65.593 24.5519 66.3164 26.3159 64.2142 27.7818C64.899 27.6402 65.5716 27.4389 66.2245 27.1793C66.5524 26.6456 67.7737 25.0384 70.341 25.5618C70.3378 25.5716 68.9367 28.1513 66.3595 27.4179C65.5212 27.7615 64.6462 28.007 63.7515 28.1487C63.6882 28.1583 63.6248 28.1673 63.5615 28.176C63.5048 28.2059 63.4466 28.2357 63.387 28.2651C63.387 28.2651 63.3832 28.2423 63.3782 28.2C62.4887 28.3104 61.5961 28.3309 60.713 28.2643C60.6927 28.2698 60.6722 28.2752 60.6515 28.2804C60.6514 28.28 60.6496 28.2727 60.6465 28.2592C60.0173 28.2086 59.393 28.1141 58.7784 27.9762C59.4071 28.2243 59.982 28.5941 60.4697 29.0658C61.0328 29.6105 61.4648 30.2765 61.7331 31.0133C58.5614 30.8185 58.4795 28.2433 58.4824 27.9062C57.979 27.7813 57.4826 27.6271 56.9959 27.4444C57.0016 27.4491 57.0074 27.4536 57.0132 27.4583C57.0686 27.5103 57.1212 27.5653 57.1707 27.623L57.1446 27.6614C57.0873 27.6533 57.032 27.6347 56.9814 27.6066C56.7603 27.4123 56.4965 27.3234 56.236 27.1763C55.9754 27.0293 55.704 26.9052 55.4402 26.7658C55.1261 26.599 54.7977 26.4486 54.4693 26.3092C54.1661 26.1764 53.852 26.0744 53.5433 25.9569C53.492 25.9367 53.4411 25.9142 53.3899 25.8918C53.2826 25.9333 53.1747 25.9731 53.066 26.0107C51.3723 26.5961 49.3717 26.8888 47.0643 26.8888C47.0298 26.8888 46.7014 26.8749 46.0792 26.8471L44.7602 26.8064V29.0235C44.761 30.9149 44.8022 32.0943 44.8839 32.5619C45.14 34.0312 45.7855 34.8851 46.8203 35.1237L46.8071 35.4814C45.6191 35.4266 44.1232 35.3991 42.3193 35.3991C40.5898 35.3991 39.1669 35.4266 38.0504 35.4814V35.1237C39.0764 34.9034 39.7079 34.0451 39.9451 32.5488C40.0093 32.1742 40.0415 30.9991 40.0415 29.0235V26.6243C39.7956 26.7122 39.5499 26.8003 39.3058 26.8932C38.2925 27.2766 37.2925 27.6709 36.2854 28.0527C36.4067 28.4858 36.4676 28.9513 36.4676 29.4493C36.4676 31.6151 35.4795 33.2907 33.5034 34.4761C31.855 35.4675 29.877 35.9632 27.5696 35.9632C24.234 35.9632 21.3698 35.3541 18.977 34.1359L20.5149 28.8885H20.8586C21.573 32.9464 23.7476 34.9754 27.3824 34.9754C28.7076 34.9754 29.7817 34.6893 30.6049 34.1171C31.5667 33.4564 32.0476 32.4924 32.0476 31.2251C32.0476 30.5817 31.8355 30.0373 31.4116 29.5916C31.0462 29.6765 30.6774 29.7464 30.3061 29.8006C29.7183 29.8807 29.124 29.9213 28.5307 29.9663C27.7108 30.0247 26.8872 30.0001 26.0722 29.8928C25.7657 29.8553 25.4614 29.8018 25.1604 29.7325C24.6766 29.6206 24.1939 29.5042 23.7199 29.3582C23.3401 29.2419 22.9756 29.0772 22.6034 28.9389C21.9316 28.6783 21.2843 28.3581 20.6693 27.9819C19.7834 27.4544 18.944 26.8524 18.1595 26.1829C18.0281 26.116 17.8957 26.0511 17.7621 25.9888C17.5526 25.891 17.3407 25.7989 17.1269 25.7123C17.1234 25.8961 17.0271 28.1006 14.4487 29.0311C14.4478 29.0199 14.2431 26.2081 17.106 25.7039C16.1372 25.3135 15.1265 25.0388 14.0946 24.8853C14.1518 25.414 14.1357 27.2195 11.4177 27.9555C11.4177 27.9493 11.389 25.5613 13.707 24.8337C13.4706 24.8056 13.2331 24.7836 12.995 24.7683C12.4457 24.7312 11.8959 24.7321 11.3492 24.7701C11.3757 25.2588 11.3167 27.1367 9.00092 28.2892C9.00092 28.2892 8.23419 26.2126 11.0337 24.7961C10.1628 24.8798 9.30175 25.0581 8.46623 25.3294C8.11058 25.8597 6.83252 27.4007 4.30281 26.7878C4.30173 26.786 5.79758 24.2448 8.35282 25.0792C8.52949 25.0208 8.70737 24.9663 8.88643 24.9163C8.1512 24.8722 6.80873 24.5416 5.89874 22.8486C5.89874 22.8486 8.69273 21.9287 9.38958 24.7875C9.86246 24.6773 10.342 24.5959 10.8256 24.5444C10.9973 24.5269 11.1689 24.5129 11.3405 24.5021C9.47809 24.0089 8.92364 22.1472 8.91989 22.1364C11.4884 21.9252 12.2722 23.9261 12.4387 24.4781C13.4758 24.4979 14.503 24.6377 15.5005 24.8921C15.0515 24.6433 14.6406 24.3281 14.2825 23.9557C13.7395 23.3911 13.3318 22.71 13.0903 21.9641ZM48.3822 24.9143C47.5952 24.8561 46.8158 24.9362 46.0387 25.0163C45.6122 25.0609 45.1881 25.1408 44.7657 25.2244V25.7309C45.3131 25.8408 45.8701 25.8963 46.4284 25.8966C47.9634 25.896 49.1446 25.6115 49.9722 25.0434C49.914 25.0348 49.8558 25.0265 49.7976 25.0175C49.3269 24.9439 48.854 24.9505 48.3822 24.9143Z"
        fill="#647D2B" />
    <path
        d="M62.2508 28.3397C65.0365 28.1169 65.8936 30.695 65.8936 30.6906C62.9284 31.0418 62.2508 28.3397 62.2508 28.3397Z"
        fill="#647D2B" />
    <path
        d="M65.2993 27.9511C65.3116 27.9486 67.4923 27.4926 68.8884 29.8741C68.8884 29.8686 66.0568 30.9145 65.2993 27.9511Z"
        fill="#647D2B" />
    <path
        d="M28.4486 16.5861C31.0858 16.5861 33.4848 17.0862 35.6456 18.0864L34.355 22.5623H33.9839C33.1973 19.2572 31.389 17.6047 28.5591 17.6047C27.4609 17.6047 26.5225 17.8526 25.7439 18.3487C24.828 18.9355 24.3701 19.7477 24.3701 20.7853C24.3708 21.5499 24.6912 22.1883 25.3311 22.7005C25.8171 23.0956 27.0212 23.4582 28.9433 23.7882C29.5497 23.8877 30.1449 23.9975 30.7287 24.1175C31.5638 24.273 32.3804 24.5158 33.1652 24.8418C32.2184 25.1436 31.2726 25.4455 30.3192 25.7198C29.1349 26.0718 27.9309 26.3537 26.7136 26.5639C26.2769 26.6341 25.8412 26.722 25.399 26.7735C24.6142 26.8701 23.825 26.9195 23.0325 26.9382C22.5154 26.7217 22.0353 26.4254 21.6095 26.0601C20.5478 25.1185 20.0169 23.9159 20.0169 22.4525C20.0162 20.4418 20.9681 18.9085 22.8727 17.8527C24.4117 17.0083 26.2704 16.5861 28.4486 16.5861Z"
        fill="#647D2B" />
    <path
        d="M38.393 17.0965C39.8933 17.1148 41.7381 17.1239 43.9273 17.1239H45.8909C49.2791 17.1239 51.7054 17.3489 53.17 17.7989C55.5781 18.543 56.7822 19.9061 56.7822 21.8883C56.7814 23.0751 56.2889 24.06 55.3045 24.8429C55.1326 24.732 54.9597 24.6256 54.7802 24.5312C54.2548 24.2568 53.7206 23.9989 53.1865 23.7432C52.9063 23.6104 52.6194 23.4896 52.3305 23.3798C52.0141 23.2602 51.6989 23.1439 51.3706 23.0407L51.3081 23.021C51.3897 22.6491 51.4293 22.2691 51.4264 21.8883C51.4256 19.3545 49.6082 18.0875 45.9741 18.0875C45.8745 18.0875 45.5461 18.1018 44.9988 18.1292C44.943 18.1292 44.8653 18.1336 44.7646 18.1424V22.1934C44.3071 22.2044 43.8189 22.2351 43.3099 22.2955C42.5427 22.3873 41.9133 22.4954 41.9077 22.4963C41.286 22.6204 40.6631 22.7412 40.0403 22.8641V19.6582C40.0403 18.4728 39.4865 17.7382 38.3787 17.4543L38.393 17.0965Z"
        fill="#647D2B" />
    <path
        d="M9.01291 32.225C8.57507 31.8639 8.35615 31.6762 7.91831 31.3031L7.32066 32.225C7.81542 32.653 8.06499 32.8627 8.56741 33.271L8.39446 33.5541C7.7377 33.0207 7.40933 32.7463 6.77227 32.18L8.44591 29.6381C9.02933 30.1528 9.32159 30.4064 9.92142 30.8893C9.85137 30.999 9.81744 31.0594 9.74848 31.1725C9.29203 30.8004 9.06545 30.6094 8.61666 30.2209L8.09235 31.0298C8.52472 31.404 8.74254 31.5873 9.18148 31.9462C9.1158 32.0582 9.08187 32.1142 9.01291 32.225Z"
        fill="#F8B135" />
    <path
        d="M10.1677 32.1811C10.1874 32.4357 10.1973 32.5631 10.2202 32.8177C10.2345 32.9834 10.2421 33.1316 10.2498 33.2907L10.2618 33.3006C10.3965 33.238 10.5213 33.1909 10.6482 33.1393C10.8573 33.0646 10.9613 33.0295 11.1693 32.9483C11.3302 33.0679 11.4112 33.1283 11.5743 33.2468C11.0872 33.4158 10.8409 33.4971 10.345 33.6529C10.414 34.2719 10.4545 34.5814 10.5344 35.2026C10.3571 35.0731 10.2684 35.0084 10.0911 34.8734C10.0626 34.6056 10.0495 34.4728 10.0232 34.205C10.0035 34.0316 9.99476 33.8757 9.9871 33.7012L9.97834 33.6946C9.84371 33.7561 9.71126 33.8044 9.56678 33.8549C9.34786 33.9328 9.2384 33.9646 9.01072 34.0447C8.84215 33.9119 8.75678 33.845 8.5893 33.7089C9.11909 33.5651 9.38179 33.4894 9.90282 33.328C9.83714 32.7365 9.80759 32.4412 9.75614 31.8518C9.92033 31.9868 10.0024 32.0516 10.1677 32.1811Z"
        fill="#F8B135" />
    <path
        d="M11.6202 34.1622C11.7538 33.9119 11.8534 33.7045 11.9486 33.5124C12.0843 33.609 12.1522 33.6573 12.289 33.7528C12.2245 33.8922 12.1927 33.9624 12.1292 34.1018L12.1369 34.1073C12.4193 33.9778 12.7389 34.0063 13.0815 34.2379C13.3336 34.4093 13.5137 34.6679 13.5874 34.9642C13.6612 35.2604 13.6233 35.5736 13.4811 35.8436C13.133 36.5647 12.4773 36.6119 11.9618 36.2629C11.8264 36.1795 11.7108 36.0676 11.6229 35.9349C11.535 35.8023 11.4769 35.652 11.4528 35.4946L11.444 35.4891C11.2196 35.9149 11.1069 36.1279 10.8836 36.5548C10.7249 36.4451 10.646 36.388 10.4884 36.2749C10.9383 35.4287 11.1649 35.0062 11.6202 34.1622ZM11.7242 34.9524C11.6996 35.0031 11.6799 35.056 11.6651 35.1104C11.6417 35.2693 11.6643 35.4316 11.7303 35.5779C11.7963 35.7243 11.9028 35.8485 12.0373 35.9358C12.4554 36.219 12.8549 36.0631 13.0793 35.6065C13.2764 35.2059 13.2205 34.7186 12.8144 34.4442C12.6958 34.355 12.5496 34.3105 12.4015 34.3186C12.2534 34.3266 12.1128 34.3866 12.0044 34.4881C11.9638 34.5254 11.9291 34.5687 11.9016 34.6165L11.7242 34.9524Z"
        fill="#F8B135" />
    <path
        d="M14.152 36.3913C13.9331 36.894 14.1827 37.3132 14.5899 37.5525C14.7921 37.6818 15.0186 37.7681 15.2554 37.806C15.2368 37.9289 15.228 37.9904 15.2094 38.1133C14.9243 38.0659 14.6515 37.9618 14.4071 37.8071C13.7175 37.3977 13.504 36.7293 13.7919 36.1224C14.0798 35.5154 14.6829 35.2784 15.309 35.6504C16.0107 36.0675 15.9494 36.7579 15.7874 37.1365C15.7626 37.1944 15.7333 37.2501 15.6998 37.3033C15.0748 36.951 14.7661 36.7688 14.152 36.3913ZM15.4393 36.8226C15.5228 36.6621 15.5401 36.4751 15.4872 36.302C15.4344 36.1288 15.3157 35.9835 15.1569 35.8974C14.7595 35.6603 14.4279 35.8974 14.2812 36.1312C14.7398 36.4154 14.9719 36.5537 15.4393 36.8226Z"
        fill="#F8B135" />
    <path
        d="M16.4014 37.1321C16.5021 36.8885 16.5842 36.6766 16.651 36.4736L16.998 36.6624C16.9367 36.8281 16.9071 36.9115 16.8458 37.0773L16.8645 37.0871C16.9628 36.9803 17.0937 36.9091 17.2367 36.8847C17.3796 36.8603 17.5266 36.884 17.6548 36.9521C17.6941 36.9712 17.7309 36.9951 17.7642 37.0235L17.6241 37.39C17.5827 37.3578 17.5383 37.3295 17.4917 37.3055C17.3671 37.237 17.2207 37.2197 17.0836 37.2574C16.9466 37.2951 16.8295 37.3848 16.7572 37.5075C16.7224 37.5603 16.6923 37.6161 16.6674 37.6743L16.2176 38.7773C16.0534 38.6895 15.9724 38.6456 15.8093 38.5578L16.4014 37.1321Z"
        fill="#F8B135" />
    <path
        d="M18.8358 36.9027C18.824 36.9354 18.8049 36.9649 18.78 36.989C18.755 37.0131 18.7249 37.0311 18.6919 37.0417C18.659 37.0523 18.624 37.0552 18.5897 37.0501C18.5555 37.0451 18.5228 37.0322 18.4943 37.0125C18.4297 36.9831 18.3784 36.9305 18.3505 36.8651C18.3226 36.7998 18.32 36.7263 18.3432 36.6591C18.3553 36.627 18.3743 36.5981 18.3988 36.5742C18.4233 36.5504 18.4528 36.5322 18.4851 36.5211C18.5174 36.51 18.5517 36.5062 18.5857 36.5099C18.6196 36.5137 18.6523 36.5249 18.6815 36.5428C18.7477 36.5723 18.8003 36.6257 18.8289 36.6925C18.8575 36.7592 18.86 36.8343 18.8358 36.9027ZM17.3701 39.3744L18.1692 37.2737C18.329 37.3538 18.41 37.3944 18.5709 37.4724C18.2579 38.3164 18.1013 38.7378 17.7872 39.5808C17.6208 39.4995 17.5365 39.4578 17.3701 39.3744Z"
        fill="#F8B135" />
    <path
        d="M19.0635 39.0364C18.8894 39.5632 19.173 39.9462 19.5977 40.1339C19.8098 40.2365 20.0409 40.2933 20.2763 40.3007C20.2686 40.4248 20.2654 40.4862 20.2588 40.6103C19.9747 40.6002 19.6957 40.5318 19.4389 40.4094C18.722 40.0933 18.4538 39.4589 18.6815 38.8191C18.9092 38.1792 19.4871 37.8675 20.1384 38.1605C20.8685 38.4832 20.8685 39.1769 20.7426 39.5731C20.7227 39.6336 20.6985 39.6926 20.6704 39.7498C20.0278 39.4677 19.706 39.3272 19.0635 39.0364ZM20.377 39.2987C20.4624 39.0528 20.4755 38.6215 20.0158 38.4206C19.6031 38.2374 19.2966 38.5128 19.1697 38.7653C19.6502 38.9793 19.891 39.0869 20.377 39.2932V39.2987Z"
        fill="#F8B135" />
    <path
        d="M21.3808 39.3887C21.4497 39.1692 21.5012 38.9804 21.5428 38.796L21.9073 38.9409L21.823 39.3075H21.8317C22.0069 39.145 22.3287 39.0462 22.7074 39.1845C23.0216 39.302 23.4638 39.6554 23.2624 40.4061L22.9121 41.7144L22.4808 41.5618C22.6198 41.058 22.6888 40.8056 22.8278 40.3029C22.9252 39.9506 22.8683 39.6093 22.4764 39.4622C22.3587 39.4146 22.2285 39.4075 22.1062 39.4421C21.984 39.4766 21.8767 39.5509 21.8011 39.6532C21.7629 39.7053 21.7346 39.7641 21.7179 39.8266C21.5614 40.3479 21.4836 40.6081 21.3282 41.1294L20.9002 40.9604C21.0907 40.3337 21.1881 40.0242 21.3808 39.3887Z"
        fill="#F8B135" />
    <path
        d="M25.3366 42.4014C25.0946 42.4289 24.8496 42.4031 24.6186 42.3257C23.895 42.1062 23.5437 41.496 23.7166 40.8243C23.8896 40.1526 24.4993 39.8233 25.2491 40.056C25.4508 40.1149 25.6395 40.2117 25.8051 40.3413L25.6398 40.6256C25.5057 40.5079 25.3466 40.4224 25.1746 40.3754C24.6426 40.2151 24.2639 40.4939 24.149 40.9527C24.117 41.0648 24.1078 41.1821 24.1219 41.2978C24.136 41.4135 24.1732 41.5252 24.2312 41.6263C24.2892 41.7273 24.3668 41.8156 24.4595 41.886C24.5522 41.9564 24.658 42.0074 24.7707 42.036C24.9507 42.0925 25.1409 42.1086 25.3279 42.0831C25.3322 42.2072 25.3333 42.2719 25.3366 42.4014Z"
        fill="#F8B135" />
    <path
        d="M26.2616 41.6463C26.1521 42.1951 26.4859 42.5244 26.9238 42.6341C27.1476 42.6975 27.3822 42.7129 27.6123 42.6791L27.6342 42.9886C27.3564 43.028 27.0736 43.0093 26.8034 42.9337C26.058 42.7472 25.7143 42.1655 25.8598 41.4982C26.0054 40.8308 26.5297 40.4182 27.2073 40.5883C27.9647 40.7793 28.0534 41.4663 27.979 41.8757C27.9667 41.9388 27.9506 42.0011 27.9308 42.0623C27.2609 41.9086 26.9271 41.8252 26.2616 41.6463ZM27.5816 41.676C27.6342 41.418 27.5937 40.99 27.1153 40.8693C26.6863 40.7595 26.4203 41.0888 26.3272 41.3577C26.8275 41.4927 27.0792 41.5607 27.5816 41.676Z"
        fill="#F8B135" />
    <path
        d="M30.3159 40.6377C30.2787 40.8967 30.2612 41.0273 30.224 41.2863C30.4692 41.3302 30.5907 41.35 30.8359 41.3961L30.7954 41.7089C30.5491 41.6694 30.4254 41.6485 30.1802 41.6046C30.1112 42.0919 30.0762 42.3356 30.0073 42.824C29.9679 43.1039 30.0313 43.2784 30.2776 43.3201C30.3631 43.3361 30.4503 43.3409 30.537 43.3343C30.5294 43.4595 30.525 43.522 30.5173 43.6461C30.3839 43.6665 30.2479 43.6631 30.1156 43.6362C29.9364 43.6139 29.7731 43.5216 29.6614 43.3794C29.5585 43.2356 29.5377 43.0259 29.5771 42.7592L29.761 41.5289L29.3954 41.4586C29.4151 41.3335 29.4249 41.271 29.4435 41.1469L29.807 41.2161C29.8398 40.9966 29.8551 40.8868 29.888 40.675L30.3159 40.6377Z"
        fill="#F8B135" />
    <path
        d="M31.4467 40.4072C31.6141 40.4324 31.6984 40.4445 31.867 40.4676C31.8024 41.0339 31.7696 41.3171 31.705 41.8845H31.7148C31.8037 41.7721 31.9214 41.686 32.0553 41.6353C32.1983 41.5783 32.3532 41.5572 32.5062 41.5739C32.8237 41.6123 33.3151 41.8549 33.2473 42.6407C33.2013 43.1829 33.1772 43.454 33.1312 43.9951C32.9517 43.9775 32.8631 43.9676 32.6836 43.9479C32.7328 43.4243 32.7569 43.1631 32.8061 42.6407C32.8401 42.2741 32.7273 41.9492 32.3201 41.8977C32.194 41.8817 32.066 41.9056 31.9539 41.966C31.8419 42.0264 31.7515 42.1203 31.6951 42.2346C31.6646 42.2943 31.6471 42.3597 31.6437 42.4267C31.5813 42.9755 31.5496 43.2487 31.4872 43.7964L31.0417 43.7317C31.1767 42.6239 31.3117 41.5157 31.4467 40.4072Z"
        fill="#F8B135" />
    <path
        d="M34.181 43.0204C34.1525 43.5824 34.5214 43.8447 34.968 43.8721C35.1996 43.8939 35.4332 43.8658 35.6532 43.7898C35.6784 43.9105 35.6904 43.9709 35.7156 44.0905C35.4498 44.1801 35.1685 44.2138 34.8892 44.1893C34.1295 44.141 33.7114 43.6351 33.765 42.9469C33.8187 42.2587 34.2784 41.7594 34.9691 41.8033C35.7419 41.8527 35.9225 42.5112 35.905 42.9304C35.9022 42.9953 35.8945 43.0599 35.882 43.1236C35.2011 43.0973 34.8607 43.0753 34.181 43.0204ZM35.4824 42.8075C35.5 42.5441 35.4014 42.1303 34.9143 42.0985C34.4765 42.07 34.2576 42.4398 34.204 42.7241C34.7162 42.768 34.9735 42.7823 35.4824 42.8075Z"
        fill="#F8B135" />
    <path
        d="M39.2643 42.7065C38.7421 42.7252 38.4805 42.7307 37.9595 42.734V43.882C38.5517 43.882 38.8483 43.871 39.4416 43.848L39.4482 44.1926C38.6743 44.2234 38.2868 44.2299 37.5129 44.2277L37.5523 41.0449C38.2561 41.0449 38.6086 41.0449 39.3124 41.0141C39.3124 41.1524 39.3124 41.2216 39.319 41.3588C38.7794 41.3796 38.5101 41.3862 37.9715 41.3895L37.9661 42.3948C38.4849 42.3948 38.7443 42.3861 39.2632 42.3674C39.2599 42.5024 39.261 42.5705 39.2643 42.7065Z"
        fill="#F8B135" />
    <path
        d="M39.9309 43.7448C40.1144 43.8392 40.3192 43.8842 40.5252 43.8754C40.8536 43.8546 40.9959 43.6911 40.9872 43.5023C40.9784 43.3135 40.846 43.207 40.5176 43.1148C40.0797 42.9952 39.8608 42.779 39.8608 42.5057C39.8499 42.1369 40.1509 41.8219 40.661 41.7857C40.863 41.7693 41.066 41.8028 41.2521 41.8834L41.159 42.1929C41.0052 42.1185 40.8346 42.086 40.6643 42.0985C40.4081 42.1161 40.2702 42.2653 40.2757 42.4355C40.2822 42.6242 40.4289 42.7011 40.7485 42.7922C41.1743 42.9129 41.4053 43.0918 41.4184 43.4309C41.4403 43.8304 41.1185 44.1454 40.5318 44.1828C40.2926 44.2029 40.0522 44.1629 39.8324 44.0664C39.8696 43.938 39.8904 43.8733 39.9309 43.7448Z"
        fill="#F8B135" />
    <path
        d="M41.9405 43.5956C42.1273 43.6835 42.3336 43.7213 42.5393 43.7053C42.8677 43.6691 43.0045 43.499 42.9892 43.3113C42.9738 43.1236 42.837 43.0204 42.5054 42.9458C42.0609 42.8459 41.8409 42.6407 41.8234 42.3674C41.8015 41.9997 42.0916 41.6705 42.6006 41.6123C42.8014 41.5864 43.0054 41.6101 43.195 41.6814C43.1621 41.8077 43.1457 41.8702 43.1118 41.9964C42.9553 41.9276 42.7832 41.9026 42.6137 41.924C42.3587 41.9525 42.2251 42.1084 42.2372 42.2785C42.2492 42.4662 42.3992 42.5364 42.7221 42.6078C43.1512 42.7087 43.3788 42.8767 43.4139 43.2147C43.4489 43.6131 43.138 43.9413 42.5513 44.006C42.3137 44.0372 42.0721 44.0081 41.8486 43.9215C41.8825 43.792 41.9011 43.7262 41.9405 43.5956Z"
        fill="#F8B135" />
    <path
        d="M44.1834 42.6736C44.2502 43.229 44.6584 43.4013 45.1028 43.3256C45.3354 43.2921 45.5588 43.2118 45.7596 43.0896C45.8056 43.1993 45.8286 43.2575 45.8691 43.3695C45.6241 43.5163 45.3525 43.613 45.07 43.6537C44.3125 43.781 43.8156 43.3815 43.7565 42.6967C43.6974 42.0118 44.0608 41.4169 44.7493 41.3028C45.5155 41.1733 45.81 41.7758 45.8647 42.1907C45.8725 42.2551 45.8758 42.3201 45.8745 42.385C45.2014 42.5134 44.862 42.5716 44.1834 42.6736ZM45.4334 42.1666C45.405 41.9042 45.2375 41.5223 44.7515 41.6024C44.3136 41.6749 44.1637 42.0864 44.1582 42.3773C44.6683 42.3005 44.9233 42.2588 45.4334 42.1666Z"
        fill="#F8B135" />
    <path
        d="M46.3518 41.6847C46.3178 41.452 46.2861 41.2622 46.2423 41.0789C46.3945 41.0481 46.47 41.0328 46.6221 40.9999C46.6539 41.1469 46.6692 41.2194 46.7009 41.3664H46.7108C46.7719 41.2161 46.8689 41.0832 46.9934 40.9795C47.1179 40.8757 47.2659 40.8043 47.4245 40.7716C47.7529 40.6958 48.2859 40.7551 48.4227 41.5212C48.518 42.0546 48.565 42.3213 48.6603 42.8547L48.2224 42.9645C48.1349 42.4486 48.0911 42.1962 48.0035 41.6748C47.9422 41.3138 47.7496 41.0492 47.3468 41.1414C47.2169 41.1723 47.099 41.2408 47.0077 41.3384C46.9164 41.4359 46.8558 41.5583 46.8334 41.6902C46.8224 41.7552 46.8224 41.8217 46.8334 41.8867L47.0359 43.2378C46.8575 43.2762 46.7688 43.2948 46.5904 43.331C46.4908 42.6703 46.4448 42.3411 46.3518 41.6847Z"
        fill="#F8B135" />
    <path
        d="M51.0925 42.0799C50.8945 42.2361 50.6675 42.3514 50.4248 42.419C49.6936 42.6385 49.1299 42.3016 49.0018 41.6211C48.8737 40.9406 49.2722 40.3106 50.0318 40.0845C50.2291 40.0224 50.4367 40.0004 50.6426 40.0198L50.6152 40.36C50.4423 40.3328 50.2653 40.3482 50.0997 40.405C49.8694 40.4605 49.6704 40.6051 49.5461 40.8073C49.4218 41.0094 49.3824 41.2527 49.4363 41.4839C49.537 41.9975 49.9596 42.217 50.4379 42.0744C50.6251 42.019 50.7994 41.9265 50.9502 41.8022L51.0925 42.0799Z"
        fill="#F8B135" />
    <path
        d="M51.5949 40.9022C51.7328 41.4389 52.1619 41.5377 52.5964 41.3851C52.8277 41.3109 53.0423 41.1919 53.228 41.035C53.2871 41.1371 53.3167 41.1886 53.3769 41.2907C53.1508 41.4794 52.8907 41.6229 52.6107 41.7133C51.8707 41.9723 51.3234 41.6639 51.1713 40.9999C51.0191 40.3359 51.3125 39.6828 51.9846 39.4479C52.742 39.1845 53.1054 39.7278 53.2149 40.1339C53.2313 40.1962 53.243 40.2597 53.2499 40.3238C52.591 40.5641 52.2604 40.6827 51.5949 40.9022ZM52.7771 40.1811C52.7158 39.9265 52.499 39.5786 52.024 39.7421C51.5982 39.8903 51.4986 40.3227 51.5303 40.6113C52.0327 40.4478 52.2812 40.3611 52.7771 40.1811Z"
        fill="#F8B135" />
    <path
        d="M56.884 38.6797C57.1522 39.4622 56.6651 40.0867 56.0981 40.3392C55.4588 40.6223 54.8349 40.3973 54.6335 39.7157C54.4146 38.9947 54.7944 38.368 55.4216 38.0903C56.0729 37.8016 56.6618 38.0321 56.884 38.6797ZM55.0571 39.5237C55.2005 39.9945 55.6044 40.225 56.0236 40.0395C56.4429 39.854 56.6202 39.3711 56.4615 38.8926C56.3411 38.5337 55.9963 38.1682 55.507 38.3855C55.0177 38.6028 54.9323 39.1154 55.0571 39.5237Z"
        fill="#F8B135" />
    <path
        d="M57.833 39.4754L57.1872 37.6622L56.8698 37.817L56.768 37.525L57.0843 37.3714C57.0701 37.3308 57.0624 37.311 57.0482 37.2715C56.9905 37.1354 56.9602 36.9892 56.9591 36.8414C56.958 36.6935 56.986 36.5469 57.0416 36.4099C57.1419 36.2078 57.3052 36.044 57.5068 35.9435C57.6198 35.8844 57.7419 35.8451 57.868 35.8271L57.926 36.1487C57.8304 36.1578 57.7376 36.1866 57.6535 36.2332C57.312 36.4099 57.3251 36.7381 57.4455 37.0586L57.4871 37.1683C57.706 37.0586 57.8155 37.0048 58.0278 36.8929C58.0716 37.0026 58.0924 37.0652 58.1373 37.1815C57.9184 37.2913 57.8089 37.3494 57.59 37.4592L58.2468 39.2647C58.0848 39.3503 58.0016 39.392 57.833 39.4754Z"
        fill="#F8B135" />
    <path
        d="M59.5636 35.4485C59.1936 35.6614 59.0086 35.7646 58.6353 35.9676C58.5861 35.8414 58.5609 35.7777 58.5106 35.6515C59.4114 35.1609 59.858 34.9019 60.7424 34.3553L60.8815 34.6637C60.5137 34.8909 60.3342 35.0018 59.9587 35.2191L61.0413 37.7435L60.6253 37.9849L59.5636 35.4485Z"
        fill="#F8B135" />
    <path
        d="M61.8173 36.0796C62.0527 36.568 62.4993 36.5504 62.9054 36.2859C63.1233 36.1517 63.3154 35.9792 63.4724 35.7766L63.6683 35.9874C63.4773 36.2307 63.2454 36.4387 62.9831 36.602C62.2913 37.0509 61.6893 36.8939 61.4167 36.2848C61.2769 35.9816 61.2537 35.6373 61.3517 35.318C61.4497 34.9987 61.6619 34.727 61.9476 34.5551C62.6525 34.0985 63.1166 34.532 63.2972 34.8942C63.3247 34.9513 63.3477 35.0103 63.3662 35.0709C62.751 35.4869 62.4412 35.6888 61.8173 36.0796ZM62.8692 35.0621C62.7598 34.8295 62.4828 34.5474 62.0384 34.835C61.8831 34.9389 61.7661 35.0911 61.7054 35.2681C61.6447 35.4452 61.6436 35.6373 61.7024 35.8151C62.172 35.5242 62.4095 35.3706 62.8692 35.0621Z"
        fill="#F8B135" />
    <path
        d="M65.5587 34.7614L65.3956 34.5419L65.3824 34.5529C65.3156 34.8683 65.1297 35.1456 64.8636 35.3267C64.417 35.646 64.0448 35.5231 63.9014 35.2389C63.6617 34.7647 63.9989 34.1918 64.8275 33.586L64.8056 33.5464C64.7202 33.3873 64.5177 33.1392 64.0821 33.452C63.8848 33.5949 63.7205 33.7787 63.6004 33.9909L63.3925 33.8186C63.545 33.5545 63.7526 33.3265 64.0011 33.1502C64.6491 32.6838 65.0234 32.9603 65.2347 33.3445L65.6309 34.0601C65.7117 34.2137 65.8086 34.3583 65.9199 34.4914C65.7765 34.6001 65.7042 34.6539 65.5587 34.7614ZM64.9676 33.8219C64.5374 34.1292 64.0842 34.5419 64.2802 34.9195C64.3984 35.1499 64.6272 35.139 64.8275 34.9908C64.9439 34.915 65.0381 34.8094 65.1004 34.685C65.1628 34.5606 65.191 34.4218 65.1821 34.2829C65.1772 34.2385 65.1642 34.1953 65.1438 34.1556L64.9676 33.8219Z"
        fill="#F8B135" />
</svg>