<svg xmlns="http://www.w3.org/2000/svg" version="1.1" xmlns:xlink="http://www.w3.org/1999/xlink" width="1000"
  height="1000">
  <style>
    #light-icon {
      display: inline;
    }

    #dark-icon {
      display: none;
    }

    @media (prefers-color-scheme: dark) {
      #light-icon {
        display: none;
      }

      #dark-icon {
        display: inline;
      }
    }
  </style>
  <g id="light-icon"><svg xmlns="http://www.w3.org/2000/svg" version="1.1" xmlns:xlink="http://www.w3.org/1999/xlink"
      width="1000" height="1000">
      <g>
        <g transform="matrix(2.73972602739726,0,0,2.73972602739726,0,0)"><svg xmlns="http://www.w3.org/2000/svg"
            version="1.1" xmlns:xlink="http://www.w3.org/1999/xlink" width="365" height="365"><svg id="Layer_2"
              xmlns="http://www.w3.org/2000/svg" xmlns:xlink="http://www.w3.org/1999/xlink" viewBox="0 0 365 365">
              <defs>
                <style>
                  .cls-1 {
                    fill: #fff;
                  }

                  .cls-2 {
                    fill: url(#linear-gradient);
                  }
                </style>
                <linearGradient id="linear-gradient" x1="182.5" y1="365" x2="182.5" y2="0"
                  gradientUnits="userSpaceOnUse">
                  <stop offset="0" stop-color="#800"></stop>
                  <stop offset="1" stop-color="#ff7b58"></stop>
                </linearGradient>
              </defs>
              <g id="Layer_1-2">
                <g>
                  <rect class="cls-2" width="365" height="365" rx="57.47" ry="57.47"></rect>
                  <g>
                    <path class="cls-1"
                      d="M100.42,174.36c11.78,11.97,23.6,23.89,35.25,35.99,.74,.77,.66,3.21,.02,4.32-6.36,10.94-4.78,21.27,2.69,30.74,4.08,5.17,8.8,9.99,13.9,14.16,14.25,11.64,28.81,22.91,43.37,34.15,1.45,1.12,3.8,1.05,5.74,1.54-.7-1.98-.85-4.51-2.18-5.87-14.61-14.9-29.41-29.63-44.16-44.4-1.07-1.07-2.49-2.04-3.01-3.35-.47-1.19-.45-3.24,.3-4.05,.71-.78,2.78-.9,3.97-.49,1.33,.46,2.37,1.81,3.47,2.85,15.01,14.23,30,28.48,45,42.72,.96,.91,1.81,2.12,2.95,2.63,.97,.43,2.3,.04,3.47,.02-.08-1.01,.14-2.19-.31-3-.62-1.13-1.73-2-2.64-2.96-13.32-14.05-26.64-28.09-39.96-42.13-1.7-1.79-3.63-3.44-4.94-5.48-.73-1.14-.39-2.96-.54-4.47,1.54,.17,3.27-.04,4.57,.61,1.47,.73,2.56,2.21,3.8,3.39,14.59,13.85,29.17,27.7,43.76,41.54,1.1,1.04,2.14,2.27,3.45,2.9,.72,.35,2.13-.14,2.89-.71,.36-.26,.19-1.78-.22-2.42-.81-1.26-1.93-2.33-2.98-3.43-13.84-14.6-27.69-29.19-41.53-43.79-1.17-1.24-2.78-2.32-3.36-3.8-.57-1.45-.08-3.32-.05-5.01,1.54,.09,3.24-.2,4.57,.37,1.3,.56,2.25,1.98,3.32,3.05,14.63,14.63,29.21,29.3,43.94,43.82,1.32,1.3,3.65,1.58,5.51,2.33-.46-2.1-.29-4.68-1.47-6.22-10.84-14.16-21.81-28.23-32.99-42.12-3.79-4.71-7.95-9.25-12.56-13.12-12.34-10.35-21.33-10.99-35.82-3.05-21.09-19.21-42.62-37.84-46.67-69.18-5.5-42.61,24.03-84.07,66-91.19,44.62-7.57,86.66,20.65,95.03,63.89,3.94,20.36,.99,39.68-9.5,57.64-1.59,2.72-1.58,4.55,.11,7.11,4.28,6.49,8.25,13.18,13.16,21.09-1.97-1.44-2.94-1.98-3.7-2.73-9.06-8.91-18.18-17.78-27.05-26.88-1.28-1.31-2.38-4.14-1.84-5.65,3.02-8.43,3.12-16.92,.29-25.16-9.1-26.45-26.77-43.84-54.81-48.76-20.79-3.65-36.09,11.75-33.49,32.71,3.43,27.75,29.58,54.04,57.29,56.93,5.28,.55,10.79-1.15,16.2-1.71,1.52-.16,3.69-.58,4.54,.21,12.23,11.33,24.97,22.17,32.37,37.75,16.78,35.35,7,76.54-24.19,100.71-29.82,23.11-73.22,21.98-102.08-2.65-29.62-25.28-37.63-67.21-19-101.24,2.52-4.59,2.83-7.84-.35-12.13-3.98-5.38-7.18-11.34-10.72-17.05,.39-.32,.79-.64,1.18-.96Z">
                    </path>
                    <path class="cls-1"
                      d="M181.98,89.24c21.95-.26,49.67,32.51,45.47,55.1-4.81-26.74-19.85-44.81-45.47-55.1Z"></path>
                  </g>
                </g>
              </g>
            </svg></svg></g>
      </g>
    </svg></g>
  <g id="dark-icon"><svg xmlns="http://www.w3.org/2000/svg" version="1.1" xmlns:xlink="http://www.w3.org/1999/xlink"
      width="1000" height="1000">
      <g clip-path="url(#SvgjsClipPath1010)">
        <rect width="1000" height="1000" fill="#ffffff"></rect>
        <g transform="matrix(1.917808219178082,0,0,1.917808219178082,150,150)"><svg xmlns="http://www.w3.org/2000/svg"
            version="1.1" xmlns:xlink="http://www.w3.org/1999/xlink" width="365" height="365"><svg id="Layer_2"
              xmlns="http://www.w3.org/2000/svg" xmlns:xlink="http://www.w3.org/1999/xlink" viewBox="0 0 365 365">
              <defs>
                <style>
                  .cls-1 {
                    fill: #fff;
                  }

                  .cls-2 {
                    fill: url(#linear-gradient);
                  }
                </style>
                <linearGradient id="linear-gradient" x1="182.5" y1="365" x2="182.5" y2="0"
                  gradientUnits="userSpaceOnUse">
                  <stop offset="0" stop-color="#800"></stop>
                  <stop offset="1" stop-color="#ff7b58"></stop>
                </linearGradient>
                <clipPath id="SvgjsClipPath1010">
                  <rect width="1000" height="1000" x="0" y="0" rx="200" ry="200"></rect>
                </clipPath>
              </defs>
              <g id="Layer_1-2">
                <g>
                  <rect class="cls-2" width="365" height="365" rx="57.47" ry="57.47"></rect>
                  <g>
                    <path class="cls-1"
                      d="M100.42,174.36c11.78,11.97,23.6,23.89,35.25,35.99,.74,.77,.66,3.21,.02,4.32-6.36,10.94-4.78,21.27,2.69,30.74,4.08,5.17,8.8,9.99,13.9,14.16,14.25,11.64,28.81,22.91,43.37,34.15,1.45,1.12,3.8,1.05,5.74,1.54-.7-1.98-.85-4.51-2.18-5.87-14.61-14.9-29.41-29.63-44.16-44.4-1.07-1.07-2.49-2.04-3.01-3.35-.47-1.19-.45-3.24,.3-4.05,.71-.78,2.78-.9,3.97-.49,1.33,.46,2.37,1.81,3.47,2.85,15.01,14.23,30,28.48,45,42.72,.96,.91,1.81,2.12,2.95,2.63,.97,.43,2.3,.04,3.47,.02-.08-1.01,.14-2.19-.31-3-.62-1.13-1.73-2-2.64-2.96-13.32-14.05-26.64-28.09-39.96-42.13-1.7-1.79-3.63-3.44-4.94-5.48-.73-1.14-.39-2.96-.54-4.47,1.54,.17,3.27-.04,4.57,.61,1.47,.73,2.56,2.21,3.8,3.39,14.59,13.85,29.17,27.7,43.76,41.54,1.1,1.04,2.14,2.27,3.45,2.9,.72,.35,2.13-.14,2.89-.71,.36-.26,.19-1.78-.22-2.42-.81-1.26-1.93-2.33-2.98-3.43-13.84-14.6-27.69-29.19-41.53-43.79-1.17-1.24-2.78-2.32-3.36-3.8-.57-1.45-.08-3.32-.05-5.01,1.54,.09,3.24-.2,4.57,.37,1.3,.56,2.25,1.98,3.32,3.05,14.63,14.63,29.21,29.3,43.94,43.82,1.32,1.3,3.65,1.58,5.51,2.33-.46-2.1-.29-4.68-1.47-6.22-10.84-14.16-21.81-28.23-32.99-42.12-3.79-4.71-7.95-9.25-12.56-13.12-12.34-10.35-21.33-10.99-35.82-3.05-21.09-19.21-42.62-37.84-46.67-69.18-5.5-42.61,24.03-84.07,66-91.19,44.62-7.57,86.66,20.65,95.03,63.89,3.94,20.36,.99,39.68-9.5,57.64-1.59,2.72-1.58,4.55,.11,7.11,4.28,6.49,8.25,13.18,13.16,21.09-1.97-1.44-2.94-1.98-3.7-2.73-9.06-8.91-18.18-17.78-27.05-26.88-1.28-1.31-2.38-4.14-1.84-5.65,3.02-8.43,3.12-16.92,.29-25.16-9.1-26.45-26.77-43.84-54.81-48.76-20.79-3.65-36.09,11.75-33.49,32.71,3.43,27.75,29.58,54.04,57.29,56.93,5.28,.55,10.79-1.15,16.2-1.71,1.52-.16,3.69-.58,4.54,.21,12.23,11.33,24.97,22.17,32.37,37.75,16.78,35.35,7,76.54-24.19,100.71-29.82,23.11-73.22,21.98-102.08-2.65-29.62-25.28-37.63-67.21-19-101.24,2.52-4.59,2.83-7.84-.35-12.13-3.98-5.38-7.18-11.34-10.72-17.05,.39-.32,.79-.64,1.18-.96Z">
                    </path>
                    <path class="cls-1"
                      d="M181.98,89.24c21.95-.26,49.67,32.51,45.47,55.1-4.81-26.74-19.85-44.81-45.47-55.1Z"></path>
                  </g>
                </g>
              </g>
            </svg></svg></g>
      </g>
    </svg></g>
</svg>